<svg xmlns="http://www.w3.org/2000/svg" viewBox="0 0 32 32"><defs><style>.a{fill:#fff;}.b{fill:#000842;}.c{fill:#f6ae2d;}</style></defs><title>agb</title><rect class="a" width="32" height="32"/><path class="b" d="M30.22,25.54H11.9a.5.5,0,0,0-.5.5v1.73a1.24,1.24,0,0,1-2.48,0V5a2.28,2.28,0,0,0-.37-1.24H25.27c.62,0,1,.56,1,1.49V24.55h1V5.23c0-1.71-1-2.48-2-2.48H6.7A2.23,2.23,0,0,0,4.47,5V8.69h-3a.5.5,0,0,0-.5.5v2.72a2.22,2.22,0,0,0,2,2.23H7.93V27.77A2.24,2.24,0,0,0,10.16,30H28.73a2,2,0,0,0,2-2V26A.5.5,0,0,0,30.22,25.54ZM4.47,11.91a1.24,1.24,0,1,1-2.48,0V9.68H4.47Zm.61,1.24a2.19,2.19,0,0,0,.38-1.24V5A1.24,1.24,0,1,1,7.93,5v8.17ZM29.73,28a1,1,0,0,1-1,1H12a2.21,2.21,0,0,0,.38-1.24V26.53H29.73Z"/><path class="c" d="M7.93,5v8.17H5.08a2.19,2.19,0,0,0,.38-1.24V5A1.24,1.24,0,1,1,7.93,5Z"/><path class="c" d="M29.73,26.53V28a1,1,0,0,1-1,1H12a2.21,2.21,0,0,0,.38-1.24V26.53Z"/><path class="c" d="M4.47,9.68v2.23a1.24,1.24,0,1,1-2.48,0V9.68Z"/><rect class="b" x="10.91" y="8.78" width="1.49" height="0.99"/><rect class="b" x="13.88" y="8.78" width="10.4" height="0.99"/><rect class="b" x="10.91" y="12.31" width="1.49" height="0.99"/><rect class="b" x="13.88" y="12.31" width="10.4" height="0.99"/><rect class="b" x="10.91" y="15.84" width="1.49" height="0.99"/><rect class="b" x="13.88" y="15.84" width="10.4" height="0.99"/></svg>