<svg xmlns="http://www.w3.org/2000/svg" viewBox="0 0 32 32"><defs><style>.a{fill:#fff;}.b{fill:#000842;}.c{fill:#f6ae2d;}</style></defs><title>impressum</title><rect class="a" width="32" height="32"/><rect class="b" x="6.44" y="7.54" width="15.5" height="0.99"/><rect class="b" x="6.44" y="12.8" width="15.5" height="0.99"/><rect class="b" x="6.44" y="18.05" width="12.87" height="0.99"/><rect class="b" x="6.44" y="23.31" width="6.04" height="0.99"/><path class="b" d="M24.88,29.84H3.5A1.5,1.5,0,0,1,2,28.35V3.49A1.5,1.5,0,0,1,3.5,2H24.88a1.5,1.5,0,0,1,1.5,1.49V15.92a.5.5,0,0,1-.5.5.5.5,0,0,1-.5-.5V3.49a.5.5,0,0,0-.5-.5H3.5a.5.5,0,0,0-.5.5V28.35a.5.5,0,0,0,.5.5H24.88a.5.5,0,0,0,.5-.5v-1a.5.5,0,0,1,.5-.49.49.49,0,0,1,.5.49v1A1.5,1.5,0,0,1,24.88,29.84Z"/><path class="b" d="M25.88,16.63a.5.5,0,0,1-.5-.5v-.21a.51.51,0,0,1,.5-.5.5.5,0,0,1,.5.5v.21A.5.5,0,0,1,25.88,16.63Z"/><path class="c" d="M29.82,14.11l-1.07.67a.71.71,0,0,1-1-.24L24.5,9.26a.73.73,0,0,1,.23-1l1.07-.67a.76.76,0,0,1,.38-.11l.16,0a.71.71,0,0,1,.45.32l3.27,5.29A.74.74,0,0,1,29.82,14.11Z"/><path class="c" d="M16.6,22.38l-1.07.67a.73.73,0,0,1-.54.09.71.71,0,0,1-.45-.32l-3.27-5.29a.73.73,0,0,1,.24-1l1.07-.67a.7.7,0,0,1,.37-.11l.17,0a.75.75,0,0,1,.45.33l3.26,5.28A.73.73,0,0,1,16.6,22.38Z"/><polygon class="c" points="26.03 14.54 23.41 16.18 23.4 16.18 23.39 16.19 20.24 18.17 20.23 18.17 20.23 18.17 17.6 19.82 15.3 16.09 23.73 10.81 26.03 14.54"/><path class="c" d="M29.59,29l-.69.44a.74.74,0,0,1-.54.09.71.71,0,0,1-.45-.32L21.63,19l1.92-1.2L29.82,28A.72.72,0,0,1,29.59,29Z"/><path class="b" d="M24.8,17.05l2.07-1.3a2.2,2.2,0,0,0,1.51.61A2.17,2.17,0,0,0,29.53,16l1.07-.67a2.2,2.2,0,0,0,.71-3L28,7a2.15,2.15,0,0,0-1.37-1A2.18,2.18,0,0,0,25,6.33L24,7A2.22,2.22,0,0,0,23,9.53l-8.56,5.35a2.13,2.13,0,0,0-1-.55,2.17,2.17,0,0,0-1.65.28l-1.07.67a2.21,2.21,0,0,0-.71,3l3.27,5.28a2.15,2.15,0,0,0,1.37,1,2.07,2.07,0,0,0,.5.06,2.16,2.16,0,0,0,1.15-.33l1.07-.67a2.22,2.22,0,0,0,.93-2.53l2.07-1.29L26.66,30a2.13,2.13,0,0,0,1.36,1,2.2,2.2,0,0,0,.5.06,2.17,2.17,0,0,0,1.16-.33l.69-.44a2.2,2.2,0,0,0,.7-3Zm-.07-8.8,1.07-.67a.76.76,0,0,1,.38-.11l.16,0a.71.71,0,0,1,.45.32l3.27,5.29a.74.74,0,0,1-.24,1l-1.07.67a.71.71,0,0,1-1-.24L24.5,9.26A.73.73,0,0,1,24.73,8.25ZM16.6,22.38l-1.07.67a.73.73,0,0,1-.54.09.71.71,0,0,1-.45-.32l-3.27-5.29a.73.73,0,0,1,.24-1l1.07-.67a.7.7,0,0,1,.37-.11l.17,0a.75.75,0,0,1,.45.33l3.26,5.28A.73.73,0,0,1,16.6,22.38Zm3.64-4.21h0L17.6,19.82l-2.3-3.73,8.43-5.28L26,14.54l-2.62,1.64h0ZM29.59,29l-.69.44a.74.74,0,0,1-.54.09.71.71,0,0,1-.45-.32L21.63,19l1.92-1.2L29.82,28A.72.72,0,0,1,29.59,29Z"/></svg>