<svg xmlns="http://www.w3.org/2000/svg" viewBox="0 0 32 32"><defs><style>.a{fill:#fff;}.b{fill:#f6ae2d;}.c{fill:#000842;}</style></defs><title>dsgvo</title><rect class="a" width="32" height="32"/><polygon class="b" points="16 1 16.98 2.98 19.15 3.29 17.58 4.83 17.95 7 16 5.97 14.05 7 14.42 4.83 12.85 3.29 15.03 2.98 16 1"/><polygon class="b" points="7 3.98 7.97 5.96 10.15 6.28 8.58 7.81 8.95 9.98 7 8.96 5.05 9.98 5.42 7.81 3.85 6.28 6.03 5.96 7 3.98"/><polygon class="b" points="25 3.98 25.98 5.96 28.15 6.28 26.58 7.81 26.95 9.98 25 8.96 23.05 9.98 23.42 7.81 21.85 6.28 24.02 5.96 25 3.98"/><polygon class="b" points="3.86 12.98 4.84 14.96 7.02 15.28 5.44 16.81 5.81 18.98 3.86 17.96 1.91 18.98 2.29 16.81 0.71 15.28 2.89 14.96 3.86 12.98"/><polygon class="b" points="27.86 12.98 28.84 14.96 31.02 15.28 29.44 16.81 29.81 18.98 27.86 17.96 25.91 18.98 26.29 16.81 24.71 15.28 26.89 14.96 27.86 12.98"/><polygon class="b" points="16 24.54 16.98 26.52 19.15 26.84 17.58 28.37 17.95 30.54 16 29.52 14.05 30.54 14.42 28.37 12.85 26.84 15.03 26.52 16 24.54"/><polygon class="b" points="7 21.54 7.97 23.52 10.15 23.84 8.58 25.37 8.95 27.54 7 26.52 5.05 27.54 5.42 25.37 3.85 23.84 6.03 23.52 7 21.54"/><polygon class="b" points="25 21.54 25.98 23.52 28.15 23.84 26.58 25.37 26.95 27.54 25 26.52 23.05 27.54 23.42 25.37 21.85 23.84 24.02 23.52 25 21.54"/><path class="c" d="M12.57,14h6.86V12.33a3.43,3.43,0,1,0-6.86,0Zm8.24.89H11.19a.44.44,0,0,0-.44.43v6.18a.44.44,0,0,0,.44.43h9.62a.44.44,0,0,0,.44-.43V15.36A.44.44,0,0,0,20.81,14.93ZM11.71,14V12.33a4.29,4.29,0,1,1,8.58,0V14h.42A1.29,1.29,0,0,1,22,15.33v6.14a1.29,1.29,0,0,1-1.29,1.29H11.29A1.29,1.29,0,0,1,10,21.47V15.33A1.29,1.29,0,0,1,11.29,14Z"/><path class="b" d="M21.25,15.36v6.18a.44.44,0,0,1-.44.43H11.19a.44.44,0,0,1-.44-.43V15.36a.44.44,0,0,1,.44-.43h9.62A.44.44,0,0,1,21.25,15.36Z"/><path class="c" d="M15.09,21a1,1,0,0,1-.65-.24l-1.82-1.62a.76.76,0,0,1,0-1.16,1,1,0,0,1,1.29,0L15.09,19l3-2.69a1,1,0,0,1,1.29,0,.76.76,0,0,1,0,1.16l-3.64,3.25A1,1,0,0,1,15.09,21Z"/></svg>
