<svg xmlns="http://www.w3.org/2000/svg" viewBox="0 0 64 64"><defs><style>.cls-1{fill:#000842;}.cls-2{fill:#f6ae2d;}.cls-3{fill:#fff;}</style></defs><title>Zeichenfläche 1</title><g id="Ebene_1" data-name="Ebene 1"><rect class="cls-1" width="64" height="64"/></g><g id="Ebene_19" data-name="Ebene 19"><g id="Ebene_20" data-name="Ebene 20"><rect class="cls-2" x="19.79" y="17.45" width="29.95" height="34.35"/></g><path class="cls-3" d="M53.73,40.12V53.33c0,1.72-.15,1.91-1.81,1.91-7.77,0-15.54,0-23.31-.05C20.74,54.8,17,51.28,14.75,48.67a19.34,19.34,0,0,1-3.34-6.51c-1-2.8-1.09-6.34-1.1-9.56,0-7.25,0-14.51,0-21.76,0-1.75.14-1.9,1.94-1.9,7.81,0,15.63-.13,23.44,0a19.16,19.16,0,0,1,5.19.87,21.14,21.14,0,0,1,8.48,5.76,19.88,19.88,0,0,1,3.17,6c1.71,4.34,1,8.77,1.2,13.17.06,1.77,0,3.54,0,5.31Zm-4.85-2c-.08-3.54,1-9.14-1.32-13.79a12.48,12.48,0,0,0-2.28-3.16,10,10,0,0,0-6.38-2.73,24.7,24.7,0,0,0-7.44.39c-1.22.23-2.44.51-3.64.85a18.33,18.33,0,0,0-2.37.9c-1.23.53-.36,2.92-.26,3.2.7,2,1.07,1.87,3.16,1.36s4.06-1.16,6.13-1.46c3.48-.5,6.42,1.92,6.36,5,0,1-.44,1.62-1.52,1.67a35.35,35.35,0,0,0-4,.25C31.83,31.11,28.18,31,25,33a8,8,0,0,0-3.9,6.2,16,16,0,0,0,0,3.24,8.24,8.24,0,0,0,2.26,5.15,9.34,9.34,0,0,0,7.85,2.83,13.21,13.21,0,0,0,8.6-3.89c1.06-1.1,2-.83,2.5.62,1.3,3.43,1.3,3.4,5,3.39,1.17,0,1.63-.4,1.61-1.58C48.85,45.56,48.88,42.19,48.88,38.09Z"/><path class="cls-3" d="M40.84,37.75c0,1.93-.19,3.75-1.78,5.18-2.4,2.16-6.31,3.38-9.12.55a4.35,4.35,0,0,1-.83-2.36,4.88,4.88,0,0,1,3.94-5.85c1.56-.26,3.1-.71,4.66-1,2.36-.38,3.09.28,3.13,2.65C40.85,37.23,40.84,37.49,40.84,37.75Z"/></g></svg>